<?xml version="1.0" encoding="utf-8"?>
<!-- Generator: Adobe Illustrator 22.0.1, SVG Export Plug-In . SVG Version: 6.00 Build 0)  -->
<svg version="1.1" id="Layer_1" xmlns="http://www.w3.org/2000/svg" xmlns:xlink="http://www.w3.org/1999/xlink" x="0px" y="0px"
	 viewBox="0 0 36 36" style="enable-background:new 0 0 36 36;" xml:space="preserve">
<style type="text/css">
	.st0{fill:#FCC33C;}
</style>
<g>
	<path class="st0" d="M32.1,2.4h-2V1.9c0-0.6-0.5-1-1-1s-1,0.5-1,1v0.6h-5.3V1.9c0-0.6-0.5-1-1-1c-0.6,0-1,0.5-1,1v0.6h-5.3V1.9
		c0-0.6-0.5-1-1-1c-0.6,0-1,0.5-1,1v0.6H8V1.9c0-0.6-0.5-1-1-1s-1,0.5-1,1v0.6h-2c-1.5,0-2.7,1.2-2.7,2.7v3.9c0,1.1,0.7,2.1,1.6,2.5
		v21.1c0,1.5,1.2,2.7,2.7,2.7h24.9c1.5,0,2.7-1.2,2.7-2.7V11.4c1-0.4,1.6-1.4,1.6-2.5V5.1C34.8,3.6,33.6,2.4,32.1,2.4z M3.3,5.1
		c0-0.3,0.3-0.6,0.6-0.6h2v0.5c0,0.6,0.5,1,1,1s1-0.5,1-1V4.5h5.3v0.5c0,0.6,0.5,1,1,1c0.6,0,1-0.5,1-1V4.5h5.3v0.5c0,0.6,0.5,1,1,1
		c0.6,0,1-0.5,1-1V4.5H28v0.5c0,0.6,0.5,1,1,1s1-0.5,1-1V4.5h2c0.3,0,0.6,0.3,0.6,0.6v3.9c0,0.3-0.3,0.6-0.6,0.6H3.9
		c-0.3,0-0.6-0.3-0.6-0.6V5.1z M30.5,33.1H5.5c-0.3,0-0.6-0.3-0.6-0.6V11.6h26.1v20.9C31.1,32.8,30.8,33.1,30.5,33.1z"/>
	<g>
		<g>
			<rect x="7.8" y="15.6" class="st0" width="5.7" height="5.7"/>
			<rect x="15.1" y="15.6" class="st0" width="5.7" height="5.7"/>
			<rect x="22.5" y="15.6" class="st0" width="5.7" height="5.7"/>
		</g>
		<g>
			<rect x="7.8" y="22.8" class="st0" width="5.7" height="5.7"/>
			<rect x="15.1" y="22.8" class="st0" width="5.7" height="5.7"/>
			<rect x="22.5" y="22.8" class="st0" width="5.7" height="5.7"/>
		</g>
	</g>
</g>
</svg>
